<?xml version="1.0" encoding="utf-8"?>
<!-- Generator: Adobe Illustrator 18.1.1, SVG Export Plug-In . SVG Version: 6.00 Build 0)  -->
<svg version="1.1" xmlns="http://www.w3.org/2000/svg" xmlns:xlink="http://www.w3.org/1999/xlink" x="0px" y="0px"
	 viewBox="0 0 155 15" enable-background="new 0 0 155 15" xml:space="preserve">
	 <style>
	 .outlines {
   stroke-dasharray: 1000;
  stroke-dashoffset: 1000;
  -webkit-animation: outline 8s linear forwards;
  animation: outline 8s linear forwards;
  stroke-width:.5px;
  stroke:#fff;
  animation-delay:.3s;

}

.fills {
   stroke-dasharray: 60;
     stroke-dashoffset: 60;
  -webkit-animation: fill 3s linear forwards;
  animation: fill 3s linear forwards;
  animation-delay:2.3s;
	stroke-linejoin:round; 
	  stroke:#fff;

}

@-webkit-keyframes fill {
  from {
    stroke-width: 1px;
  }
  to {
      stroke-dashoffset: 0;
  }
}

@keyframes fill {
  from {
    stroke-width: 1px;
  }
  to {
      stroke-dashoffset: 0;
  }
}


@-webkit-keyframes outline {
  to {
    stroke-dashoffset: 0;
  }
}
@keyframes outline {
  to {
    stroke-dashoffset: 0;
  }
}

.Mfill{
	-webkit-animation-delay:0s;
	animation-delay:0s;


}
.Afill{
		-webkit-animation-delay:.2s;
		animation-delay:.2s;

	
}
.Zfill{
	-webkit-animation-delay:.4s;
	animation-delay:.4s;

}
.Ifill{
	-webkit-animation-delay:.6s;
	animation-delay:.6s;

	
}
.Nfill{
	-webkit-animation-delay:.8s;
	animation-delay:.8s;

}

.Moutline{
	
}
.Aoutline{
		-webkit-animation-delay:.2s;
		animation-delay:.2s;

	
}
.Zoutline{
	-webkit-animation-delay:.4s;
	animation-delay:.4s;

}
.Ioutline{
	-webkit-animation-delay:.6s;
	animation-delay:.6s;

	
}
.Noutline{
	-webkit-animation-delay:.8s;
	animation-delay:.8s;

}


	 </style>
<g id="Layer_1">
	<path class="outlines Noutline" id="Noutline" fill="none" stroke="#000000" stroke-width="0.2" stroke-miterlimit="10" d="M150.8,14.5l-6.8-9v9h-3v-14h2.9
		l6.8,9v-9h3v14H150.8z"/>
	<path class="outlines Ioutline" id="Ioutline" fill="none" stroke="#000000" stroke-width="0.2" stroke-miterlimit="10" d="M113.1,14.5v-14h3.2v14H113.1z"/>
	<path class="outlines Zoutline" id="Zoutline" fill="none" stroke="#000000" stroke-width="0.2" stroke-miterlimit="10" d="M81.4,11.9h7.9l0,2.6H77.1v-2.1
		L85,3.1h-7.6V0.5h11.8v2.1L81.4,11.9z"/>
	<path class="outlines Aoutline" id="Aoutline" fill="none" stroke="#000000" stroke-width="0.2" stroke-miterlimit="10" d="M44,11.8l-1.1,2.7h-3.3l6.1-14H49
		l6,14h-3.4l-1.1-2.7H44z M47.3,3.8L45,9.2h4.4L47.3,3.8z"/>
	<path class="outlines Moutline" id="Moutline" fill="none" stroke="#000000" stroke-width="0.2" stroke-miterlimit="10" d="M13.7,14.5V5.1l-3.7,8H7.9l-3.7-8
		v9.4H1.3v-14h3.5l4.1,8.6L13,0.5h3.5v14H13.7z"/>
</g>
<g id="Layer_2">
	<g id="Nfill">
		<line class="fills Nfill" fill="none" stroke="#000000" stroke-width="3" stroke-miterlimit="10" x1="142.5" y1="0.5" x2="142.5" y2="14.5"/>
		<line class="fills Nfill" fill="none" stroke="#000000" stroke-width="3" stroke-miterlimit="10" x1="152" y1="13.7" x2="142.9" y2="1.6"/>
		<line class="fills Nfill" fill="none" stroke="#000000" stroke-width="3" stroke-miterlimit="10" x1="152.3" y1="14.5" x2="152.3" y2="0.5"/>
	</g>
	<g id="Ifill">
		<line class="fills Ifill" fill="none" stroke="#000000" stroke-width="3" stroke-miterlimit="10" x1="114.7" y1="0.6" x2="114.7" y2="14.5"/>
	</g>
	<g id="Zfill">
		<line class="fills Zfill" fill="none" stroke="#000000" stroke-width="2.8" stroke-miterlimit="10" x1="77.4" y1="1.8" x2="88.8" y2="1.8"/>
		<line class="fills Zfill" fill="none" stroke="#000000" stroke-width="2.6" stroke-miterlimit="10" x1="89.4" y1="13.2" x2="77.5" y2="13.2"/>
		<line class="fills Zfill" fill="none" stroke="#000000" stroke-width="2.8" stroke-miterlimit="10" x1="87.6" y1="2.2" x2="78.5" y2="13"/>
		<polyline class="fills Zfill" fill="none" stroke="#000000" stroke-width="0.4" stroke-miterlimit="10" points="77.4,14.4 77.4,12.6 77.4,12.3 
			78.3,11.9 		"/>
		<polyline class="fills Zfill" fill="none" stroke="#000000" stroke-width="0.4" stroke-miterlimit="10" points="89,0.6 89,2.8 88.6,3.1 		"/>
	</g>
	<g id="Afill">
		<line class="fills Afill" fill="none" stroke="#000000" stroke-width="2.9" stroke-miterlimit="10" x1="41.5" y1="13.9" x2="46.7" y2="1.7"/>
		<line class="fills Afill" fill="none" stroke="#000000" stroke-width="3.1" stroke-miterlimit="10" x1="47.8" y1="1.5" x2="53.1" y2="13.9"/>
		<line class="fills Afill" fill="none" stroke="#000000" stroke-width="2.6" stroke-miterlimit="10" x1="43.6" y1="10.4" x2="50.7" y2="10.4"/>
		<polyline class="fills Afill" fill="none" stroke="#000000" stroke-width="0.5" stroke-miterlimit="10" points="42.6,14.3 39.9,14.3 40.7,13 
			40.6,13.9 42,14 		"/>
		<polyline class="fills Afill" fill="none" stroke="#000000" stroke-width="0.5" stroke-miterlimit="10" points="45.6,0.8 48.9,0.8 49,1.2 46.2,1.2 
			45.6,1.2 44.5,3.9 46.2,1.4 47.8,1.4 46.8,1.7 46.7,1.8 		"/>
		<polyline class="fills Afill" fill="none" stroke="#000000" stroke-width="0.6" stroke-miterlimit="10" points="51.9,14.2 54.5,14.3 53.8,13 
			53.9,13.9 52.5,14 		"/>
	</g>
	<g id="Mfill">
		<polyline class="fills Mfill" fill="none" stroke="#000000" stroke-width="3" stroke-miterlimit="10" points="2.7,14.5 2.7,2 4.2,2 		"/>
		<line class="fills Mfill" fill="none" stroke="#000000" stroke-width="3" stroke-miterlimit="10" x1="4" y1="2.2" x2="9.1" y2="12.1"/>
		<line class="fills Mfill" fill="none" stroke="#000000" stroke-miterlimit="10" x1="5.1" y1="2.5" x2="3.9" y2="0.8"/>
		<line class="fills Mfill" fill="none" stroke="#000000" stroke-miterlimit="10" x1="8" y1="11.8" x2="8.3" y2="12.9"/>
		<path class="fills Mfill" fill="none" stroke="#000000" stroke-miterlimit="10" d="M4.4,0.5"/>
		<polyline class="fills Mfill" fill="none" stroke="#000000" stroke-width="3" stroke-miterlimit="10" points="15.1,14.5 15.1,2 13.5,2 		"/>
		<line class="fills Mfill" fill="none" stroke="#000000" stroke-width="3" stroke-miterlimit="10" x1="14.3" y1="1.3" x2="8.7" y2="12.1"/>
		<line class="fills Mfill" fill="none" stroke="#000000" stroke-miterlimit="10" x1="5.2" y1="2.5" x2="4.2" y2="0.6"/>
		<line class="fills Mfill" fill="none" stroke="#000000" stroke-width="0.7" stroke-miterlimit="10" x1="14.4" y1="0.8" x2="13" y2="0.8"/>
		<polyline class="fills Mfill" fill="none" stroke="#000000" stroke-width="0.3" stroke-miterlimit="10" points="7.9,12.9 9.3,12.9 9.7,12.9 9.9,12.9 
			9.9,12.3 8.9,12.3 8.5,12.3 8.7,12.6 9.4,12.6 9.7,12.6 9.8,12.7 		"/>
	</g>
</g>
</svg>
