<?xml version="1.0" encoding="utf-8"?>
<!-- Generator: Adobe Illustrator 18.1.1, SVG Export Plug-In . SVG Version: 6.00 Build 0)  -->
<svg version="1.1" xmlns="http://www.w3.org/2000/svg" xmlns:xlink="http://www.w3.org/1999/xlink" x="0px" y="0px"
	 viewBox="0 0 1040 645" enable-background="new 0 0 1040 645" xml:space="preserve">
<g id="Layer_2">
	<polygon fill="#0A0F1D" points="276.2,462.9 255.9,456.6 242.9,443.4 221.4,437.9 209.8,425.2 186.5,418.8 174.4,406.8 
		151.3,399.7 137,384 116.3,380.6 104.1,368.5 101.6,367.9 101.9,187.2 269.4,163.6 271.1,165.3 289.4,169.8 301.8,182.1 
		304.4,182.7 306.1,184.4 324.4,188.9 336.8,201.1 339.5,201.8 341.3,203.5 359.6,208 371.7,220 374.6,220.8 376.3,222.5 394.6,227 
		407.4,239.5 409.9,240.1 411.4,241.6 429.1,245.8 441.3,257.9 444,258.6 443.8,393.4 443.7,439.4 	"/>
	<polygon fill="#73660A" points="621.6,391.9 618.2,386.1 610.7,385.8 607.1,380.1 599.3,379.7 595.8,374 588,373.6 584.5,367.8 
		576.7,367.4 573.3,361.6 565.5,361.3 565.6,271 649.3,259.3 652.6,265 660.5,265.4 663.9,271.1 671.8,271.6 675.2,277.3 
		683.1,277.7 686.5,283.4 694.4,283.9 697.6,289.4 705.4,289.9 705.3,380.1 	"/>
	<polygon fill="#B4B4B4" points="714.1,282.3 645.7,245.1 645.9,141 742.3,127.5 811.6,165.2 	"/>
	<polygon fill="#878787" points="898.1,592.6 852.5,567.8 852.6,494.2 921.1,484.5 966.5,509.4 966.3,583.1 	"/>
	<polygon fill="#6E6E6E" points="337.6,580 292,555.2 292.1,481.5 360.4,471.9 406,496.7 405.8,570.4 	"/>
	<polygon fill="#B4B4B4" points="636.7,497.1 601.6,478 601.7,412.7 662.8,404.2 697.3,423.3 697.2,488.6 	"/>
</g>
<g id="Layer_1">
	<g>
		<g>
			<g enable-background="new    ">
				<g>
					<polygon fill="#0B101F" points="289.1,356.4 268.2,343.6 268.5,164.7 289.4,169.8 					"/>
				</g>
				<g>
					<polygon fill="#0F172D" points="116.3,380.6 102.5,366.9 268.2,343.6 289.1,356.4 					"/>
				</g>
				<g>
					<polygon fill="#0A0F1D" points="303.2,362.6 289.1,356.4 289.4,169.8 303.6,183.8 					"/>
				</g>
				<g>
					<polygon fill="#0D1325" points="137.5,385.9 116.3,380.6 289.1,356.4 303.2,362.6 					"/>
				</g>
				<g>
					<polygon fill="#0B101F" points="324.1,375.4 303.2,362.6 303.6,183.8 324.4,188.9 					"/>
				</g>
				<g>
					<polygon fill="#0B101F" points="122.5,373 101.6,367.9 101.9,187.2 122.8,199.9 					"/>
				</g>
				<g>
					<polygon fill="#0F172D" points="122.8,199.9 101.9,187.2 269.4,163.6 283.2,177.4 					"/>
				</g>
				<g>
					<polygon fill="#0F172D" points="151.3,399.7 137.5,385.9 303.2,362.6 324.1,375.4 					"/>
				</g>
				<g>
					<polygon fill="#0A0F1D" points="338.3,381.7 324.1,375.4 324.4,188.9 338.6,202.9 					"/>
				</g>
				<g>
					<polygon fill="#0A0F1D" points="136.6,387 122.5,373 122.8,199.9 137,206.2 					"/>
				</g>
				<g>
					<polygon fill="#0D1325" points="137,206.2 122.8,199.9 283.2,177.4 304.4,182.7 					"/>
				</g>
				<g>
					<polygon fill="#0D1325" points="172.6,405 151.3,399.7 324.1,375.4 338.3,381.7 					"/>
				</g>
				<g>
					<polygon fill="#0B101F" points="359.2,394.5 338.3,381.7 338.6,202.9 359.6,208 					"/>
				</g>
				<g>
					<polygon fill="#0F172D" points="157.8,219 137,206.2 304.4,182.7 318.2,196.5 					"/>
				</g>
				<g>
					<polygon fill="#0B101F" points="157.5,392.1 136.6,387 137,206.2 157.8,219 					"/>
				</g>
				<g>
					<polygon fill="#0F172D" points="186.5,418.8 172.6,405 338.3,381.7 359.2,394.5 					"/>
				</g>
				<g>
					<polygon fill="#0A0F1D" points="373.4,400.8 359.2,394.5 359.6,208 373.7,221.9 					"/>
				</g>
				<g>
					<polygon fill="#0A0F1D" points="171.7,406.1 157.5,392.1 157.8,219 172,225.3 					"/>
				</g>
				<g>
					<polygon fill="#0D1325" points="172,225.3 157.8,219 318.2,196.5 339.5,201.8 					"/>
				</g>
				<g>
					<polygon fill="#0D1325" points="207.7,424.1 186.5,418.8 359.2,394.5 373.4,400.8 					"/>
				</g>
				<g>
					<polygon fill="#0B101F" points="394.3,413.6 373.4,400.8 373.7,221.9 394.6,227 					"/>
				</g>
				<g>
					<polygon fill="#0F172D" points="193,238.1 172,225.3 339.5,201.8 353.4,215.5 					"/>
				</g>
				<g>
					<polygon fill="#0B101F" points="192.6,411.3 171.7,406.1 172,225.3 193,238.1 					"/>
				</g>
				<g>
					<polygon fill="#0F172D" points="221.4,437.9 207.7,424.1 373.4,400.8 394.3,413.6 					"/>
				</g>
				<g>
					<polygon fill="#0A0F1D" points="408.8,420.1 394.3,413.6 394.6,227 409.1,241.1 					"/>
				</g>
				<g>
					<polygon fill="#0A0F1D" points="206.8,425.2 192.6,411.3 193,238.1 207.1,244.4 					"/>
				</g>
				<g>
					<polygon fill="#0D1325" points="207.1,244.4 193,238.1 353.4,215.5 374.6,220.8 					"/>
				</g>
				<g>
					<polygon fill="#0D1325" points="242.9,443.4 221.4,437.9 394.3,413.6 408.8,420.1 					"/>
				</g>
				<g>
					<polygon fill="#0B101F" points="428.7,432.3 408.8,420.1 409.1,241.1 429.1,245.8 					"/>
				</g>
				<g>
					<polygon fill="#0B101F" points="227.7,430.3 206.8,425.2 207.1,244.4 228,257.2 					"/>
				</g>
				<g>
					<polygon fill="#0F172D" points="228,257.2 207.1,244.4 374.6,220.8 388.4,234.6 					"/>
				</g>
				<g>
					<polygon fill="#0F172D" points="255.9,456.6 242.9,443.4 408.8,420.1 428.7,432.3 					"/>
				</g>
				<g>
					<polygon fill="#0A0F1D" points="442.8,438.6 428.7,432.3 429.1,245.8 443.1,259.7 					"/>
				</g>
				<g>
					<polygon fill="#0D1325" points="242.5,263.7 228,257.2 388.4,234.6 409.9,240.1 					"/>
				</g>
				<g>
					<polygon fill="#0A0F1D" points="242.2,444.3 227.7,430.3 228,257.2 242.5,263.7 					"/>
				</g>
				<g>
					<polygon fill="#0D1325" points="277.1,461.9 255.9,456.6 428.7,432.3 442.8,438.6 					"/>
				</g>
				<g>
					<polygon fill="#0B101F" points="262.1,449 242.2,444.3 242.5,263.7 262.5,275.9 					"/>
				</g>
				<g>
					<polygon fill="#0F172D" points="262.5,275.9 242.5,263.7 409.9,240.1 422.8,253.4 					"/>
				</g>
				<g>
					<polygon fill="#0D1325" points="276.5,282.2 262.5,275.9 422.8,253.4 444,258.6 					"/>
				</g>
				<g>
					<polygon fill="#0A0F1D" points="276.2,462.9 262.1,449 262.5,275.9 276.5,282.2 					"/>
				</g>
				<g>
					<path fill="#111A33" d="M276.5,282.2L444,258.6l-0.3,180.8l-167.5,23.5L276.5,282.2z M442.8,438.6l0.3-178.9L277.4,283
						l-0.3,178.9L442.8,438.6"/>
				</g>
			</g>
		</g>
	</g>
	<g>
		<g>
			<g enable-background="new    ">
				<g>
					<polygon fill="#DFDFDF" points="697.3,423.3 697.2,488.6 636.7,497.1 636.8,431.8 					"/>
				</g>
				<g>
					<polygon fill="#828282" points="636.7,497.1 601.6,478 601.7,412.7 636.8,431.8 					"/>
				</g>
				<g>
					<polygon fill="#B4B4B4" points="636.8,431.8 601.7,412.7 662.2,404.2 697.3,423.3 					"/>
				</g>
			</g>
		</g>
	</g>
	<g>
		<g>
			<g enable-background="new    ">
				<g>
					<polygon fill="#DFDFDF" points="553.9,367.1 553.8,395.9 527.1,399.6 527.2,370.8 					"/>
				</g>
				<g>
					<polygon fill="#828282" points="527.1,399.6 517.1,394.2 517.1,365.4 527.2,370.8 					"/>
				</g>
				<g>
					<polygon fill="#B4B4B4" points="527.2,370.8 517.1,365.4 543.8,361.6 553.9,367.1 					"/>
				</g>
			</g>
		</g>
	</g>
	<g>
		<g>
			<g enable-background="new    ">
				<g>
					<polygon fill="#DFDFDF" points="811.6,165.2 811.4,269.2 715,282.8 715.2,178.7 					"/>
				</g>
				<g>
					<polygon fill="#828282" points="715,282.8 645.7,245.1 645.9,141 715.2,178.7 					"/>
				</g>
				<g>
					<polygon fill="#B4B4B4" points="715.2,178.7 645.9,141 742.3,127.5 811.6,165.2 					"/>
				</g>
			</g>
		</g>
	</g>
	<g>
		<polygon fill="#DDDDDD" points="790.3,215.2 790.3,251.3 747.1,255.9 747.2,220.7 		"/>
	</g>
	<g>
		<g>
			<g enable-background="new    ">
				<g>
					<polygon fill="#C8B211" points="852.9,277.5 852.7,359.1 777.1,369.8 777.2,288.1 					"/>
				</g>
				<g>
					<polygon fill="#75680A" points="777.1,369.8 720.1,338.8 720.2,257.1 777.2,288.1 					"/>
				</g>
				<g>
					<polygon fill="#A2900D" points="777.2,288.1 720.2,257.1 795.9,246.5 852.9,277.5 					"/>
				</g>
			</g>
		</g>
	</g>
	<g>
		<g>
			<g enable-background="new    ">
				<g>
					<polygon fill="#878787" points="406,496.7 405.8,570.4 337.6,580 337.7,506.3 					"/>
				</g>
				<g>
					<polygon fill="#4F4F4F" points="337.6,580 292,555.2 292.1,481.5 337.7,506.3 					"/>
				</g>
				<g>
					<polygon fill="#6E6E6E" points="337.7,506.3 292.1,481.5 360.4,471.9 406,496.7 					"/>
				</g>
			</g>
		</g>
	</g>
	<g>
		<polygon fill="#0D131E" points="255,238.3 227.6,223.4 284.6,215.4 312,230.3 		"/>
	</g>
	<g>
		<g enable-background="new    ">
			<g>
				<polygon fill="#72652B" points="780.1,279.5 755.8,266.3 791.6,261.3 815.9,274.5 				"/>
			</g>
		</g>
	</g>
	<g>
		<g>
			<g enable-background="new    ">
				<g>
					<polygon fill="#111A33" points="768.1,563.5 768,577.5 755.1,579.4 755.1,565.3 					"/>
				</g>
				<g>
					<polygon fill="#0A0F1E" points="755.1,579.4 732.3,567 732.3,552.9 755.1,565.3 					"/>
				</g>
				<g>
					<polygon fill="#0E1529" points="755.1,565.3 732.3,552.9 745.3,551.1 768.1,563.5 					"/>
				</g>
			</g>
		</g>
	</g>
	<g>
		<g enable-background="new    ">
			<g>
				<polygon fill="#BCA810" points="573.4,276.1 565.6,271 649.3,259.3 652.6,265 				"/>
			</g>
			<g>
				<polygon fill="#7F710B" points="573.3,361.7 565.5,361.3 565.6,271 573.4,276.1 				"/>
			</g>
			<g>
				<polygon fill="#73660A" points="576.7,367.4 573.3,361.7 573.4,276.1 576.9,277.2 				"/>
			</g>
			<g>
				<polygon fill="#87790B" points="576.9,277.2 573.4,276.1 652.6,265 660.5,265.4 				"/>
			</g>
			<g>
				<polygon fill="#BDA810" points="584.7,282.3 576.9,277.2 660.5,265.4 663.9,271.1 				"/>
			</g>
			<g>
				<polygon fill="#7F710B" points="584.5,367.8 576.7,367.4 576.9,277.2 584.7,282.3 				"/>
			</g>
			<g>
				<polygon fill="#87790B" points="588.2,283.3 584.7,282.3 663.9,271.1 671.8,271.6 				"/>
			</g>
			<g>
				<polygon fill="#73660A" points="588,373.6 584.5,367.8 584.7,282.3 588.2,283.3 				"/>
			</g>
			<g>
				<polygon fill="#7F710B" points="595.8,374 588,373.6 588.2,283.3 596,288.4 				"/>
			</g>
			<g>
				<polygon fill="#BCA810" points="596,288.4 588.2,283.3 671.8,271.6 675.2,277.3 				"/>
			</g>
			<g>
				<polygon fill="#88790B" points="599.5,289.4 596,288.4 675.2,277.3 683.1,277.7 				"/>
			</g>
			<g>
				<polygon fill="#73660A" points="599.3,379.7 595.8,374 596,288.4 599.5,289.4 				"/>
			</g>
			<g>
				<polygon fill="#BDA810" points="607.3,294.6 599.5,289.4 683.1,277.7 686.5,283.4 				"/>
			</g>
			<g>
				<polygon fill="#7F710B" points="607.1,380.1 599.3,379.7 599.5,289.4 607.3,294.6 				"/>
			</g>
			<g>
				<polygon fill="#88790B" points="610.9,295.7 607.3,294.6 686.5,283.4 694.4,283.9 				"/>
			</g>
			<g>
				<polygon fill="#73660A" points="610.7,385.8 607.1,380.1 607.3,294.6 610.9,295.7 				"/>
			</g>
			<g>
				<polygon fill="#7F710B" points="618.2,386.1 610.7,385.8 610.9,295.7 618.3,300.6 				"/>
			</g>
			<g>
				<polygon fill="#BDA910" points="618.3,300.6 610.9,295.7 694.4,283.9 697.6,289.4 				"/>
			</g>
			<g>
				<polygon fill="#73660A" points="621.6,391.9 618.2,386.1 618.3,300.6 621.8,301.6 				"/>
			</g>
			<g>
				<polygon fill="#87790B" points="621.8,301.6 618.3,300.6 697.6,289.4 705.4,289.9 				"/>
			</g>
			<g>
				<polygon fill="#C8B211" points="705.4,289.9 705.3,380.1 621.6,391.9 621.8,301.6 				"/>
			</g>
		</g>
	</g>
	<g>
		<g>
			<g enable-background="new    ">
				<g>
					<polygon fill="#878787" points="966.5,509.4 966.3,583.1 898.1,592.6 898.2,519 					"/>
				</g>
				<g>
					<polygon fill="#4F4F4F" points="898.1,592.6 852.5,567.8 852.6,494.2 898.2,519 					"/>
				</g>
				<g>
					<polygon fill="#6E6E6E" points="898.2,519 852.6,494.2 920.9,484.6 966.5,509.4 					"/>
				</g>
			</g>
		</g>
	</g>
	<polygon fill="#090E16" points="448.8,404.2 432,395.1 460.5,391.1 477.3,400.2 	"/>
	<g>
		<g>
			<polygon fill="#545454" points="313.4,493.1 292.1,481.5 360.3,471.9 380.9,483.4 			"/>
		</g>
	</g>
	<g>
		<polygon fill="#A0A0A0" points="620,422.9 601.7,413.1 662.8,404.2 680.8,414.4 		"/>
	</g>
	<polyline fill="#545454" points="921.1,484.5 944.7,512.5 921.1,515.8 	"/>
	<g>
		<g>
			<g enable-background="new    ">
				<g>
					<polygon fill="#C8B211" points="804.7,410.2 804.6,439.1 777.9,442.8 778,414 					"/>
				</g>
				<g>
					<polygon fill="#75680A" points="777.9,442.8 767.9,437.4 767.9,408.5 778,414 					"/>
				</g>
				<g>
					<polygon fill="#A2900D" points="778,414 767.9,408.5 794.6,404.8 804.7,410.2 					"/>
				</g>
			</g>
		</g>
	</g>
</g>
</svg>
