<?xml version="1.0" encoding="utf-8"?>
<!-- Generator: Adobe Illustrator 18.1.1, SVG Export Plug-In . SVG Version: 6.00 Build 0)  -->
<svg version="1.1" xmlns="http://www.w3.org/2000/svg" xmlns:xlink="http://www.w3.org/1999/xlink" x="0px" y="0px"
	 viewBox="0 0 1040 645" enable-background="new 0 0 1040 645" xml:space="preserve">
<g id="Layer_2">
	<polygon fill="#0A0F1D" points="857.3,531.3 851.8,525.1 843.2,523.5 837.5,517.3 828.5,515.6 823,509.4 814,507.7 808.4,501.5 
		799.4,499.7 793.8,493.6 784.9,491.8 785,417.8 853.6,408.1 859,414.2 868.1,416 873.6,422.1 882.7,424 888.2,430 897.3,431.9 
		902.7,438 911.9,439.9 917,445.8 926.1,447.6 925.9,521.6 	"/>
</g>
<g id="Layer_4">
	<g>
		<g>
			<g enable-background="new    ">
				<g>
					<polygon fill="#0A0F1E" points="517.7,415.4 447.1,376.9 447.3,272.2 517.9,310.7 					"/>
				</g>
				<g>
					<polygon fill="#0E1529" points="420.7,429 350,390.6 447.1,376.9 517.7,415.4 					"/>
				</g>
				<g>
					<path fill="#111A33" d="M420,323.5l98.8-13.9l-0.2,106.6l-98.8,13.9L420,323.5z M517.7,415.4l0.2-104.7l-97,13.6L420.7,429
						L517.7,415.4"/>
				</g>
				<g>
					<polygon fill="#0E1529" points="420,323.5 349.3,285 448.1,271.2 518.8,309.6 					"/>
				</g>
				<g>
					<polygon fill="#0A0F1E" points="419.8,430.1 349.2,391.7 349.3,285 420,323.5 					"/>
				</g>
			</g>
		</g>
	</g>
	<g>
		<g>
			<g enable-background="new    ">
				<g>
					<polygon fill="#10172D" points="794,423.4 785,417.8 853.6,408.1 859,414.2 					"/>
				</g>
				<g>
					<polygon fill="#0B101F" points="793.8,493.6 784.9,491.8 785,417.8 794,423.4 					"/>
				</g>
				<g>
					<polygon fill="#0A0F1D" points="799.4,499.7 793.8,493.6 794,423.4 799.5,425.7 					"/>
				</g>
				<g>
					<polygon fill="#0D1325" points="799.5,425.7 794,423.4 859,414.2 868.1,416 					"/>
				</g>
				<g>
					<polygon fill="#10172D" points="808.5,431.3 799.5,425.7 868.1,416 873.6,422.1 					"/>
				</g>
				<g>
					<polygon fill="#0B101F" points="808.4,501.5 799.4,499.7 799.5,425.7 808.5,431.3 					"/>
				</g>
				<g>
					<polygon fill="#0D1325" points="814.1,433.6 808.5,431.3 873.6,422.1 882.7,424 					"/>
				</g>
				<g>
					<polygon fill="#0A0F1D" points="814,507.7 808.4,501.5 808.5,431.3 814.1,433.6 					"/>
				</g>
				<g>
					<polygon fill="#0B101F" points="823,509.4 814,507.7 814.1,433.6 823.1,439.2 					"/>
				</g>
				<g>
					<polygon fill="#10172D" points="823.1,439.2 814.1,433.6 882.7,424 888.2,430 					"/>
				</g>
				<g>
					<polygon fill="#0D1325" points="828.7,441.5 823.1,439.2 888.2,430 897.3,431.9 					"/>
				</g>
				<g>
					<polygon fill="#0A0F1D" points="828.5,515.6 823,509.4 823.1,439.2 828.7,441.5 					"/>
				</g>
				<g>
					<polygon fill="#10172D" points="837.6,447.1 828.7,441.5 897.3,431.9 902.7,438 					"/>
				</g>
				<g>
					<polygon fill="#0B101F" points="837.5,517.3 828.5,515.6 828.7,441.5 837.6,447.1 					"/>
				</g>
				<g>
					<polygon fill="#0D1325" points="843.4,449.5 837.6,447.1 902.7,438 911.9,439.9 					"/>
				</g>
				<g>
					<polygon fill="#0A0F1D" points="843.2,523.5 837.5,517.3 837.6,447.1 843.4,449.5 					"/>
				</g>
				<g>
					<polygon fill="#0B101F" points="851.8,525.1 843.2,523.5 843.4,449.5 851.9,454.9 					"/>
				</g>
				<g>
					<polygon fill="#10182E" points="851.9,454.9 843.4,449.5 911.9,439.9 917,445.8 					"/>
				</g>
				<g>
					<polygon fill="#0A0F1D" points="857.3,531.3 851.8,525.1 851.9,454.9 857.5,457.2 					"/>
				</g>
				<g>
					<polygon fill="#0D1325" points="857.5,457.2 851.9,454.9 917,445.8 926.1,447.6 					"/>
				</g>
				<g>
					<polygon fill="#111A33" points="926.1,447.6 925.9,521.6 857.3,531.3 857.5,457.2 					"/>
				</g>
			</g>
		</g>
	</g>
</g>
</svg>
