<?xml version="1.0" encoding="utf-8"?>
<!-- Generator: Adobe Illustrator 18.1.1, SVG Export Plug-In . SVG Version: 6.00 Build 0)  -->
<svg version="1.1" xmlns="http://www.w3.org/2000/svg" xmlns:xlink="http://www.w3.org/1999/xlink" x="0px" y="0px"
	 viewBox="0 0 1040 645" enable-background="new 0 0 1040 645" xml:space="preserve">
<g id="Layer_2">
	<g>
		<g>
			<g enable-background="new    ">
				<g>
					<polygon fill="#1E3D54" points="53.4,120.6 25.5,103.5 248,72.3 266.4,90.6 					"/>
				</g>
				<g>
					<polygon fill="#1E3D54" points="52.9,350.6 25,343.8 25.5,103.5 53.4,120.6 					"/>
				</g>
				<g>
					<polygon fill="#1E3D54" points="71.8,369.2 52.9,350.6 53.4,120.6 72.3,129 					"/>
				</g>
				<g>
					<polygon fill="#1E3D54" points="72.3,129 53.4,120.6 266.4,90.6 294.8,97.7 					"/>
				</g>
				<g>
					<polygon fill="#1E3D54" points="100.1,146 72.3,129 294.8,97.7 313.2,116.1 					"/>
				</g>
				<g>
					<polygon fill="#1E3D54" points="99.7,376 71.8,369.2 72.3,129 100.1,146 					"/>
				</g>
				<g>
					<polygon fill="#1E3D54" points="119.1,154.5 100.1,146 313.2,116.1 341.7,123.2 					"/>
				</g>
				<g>
					<polygon fill="#1E3D54" points="118.7,394.7 99.7,376 100.1,146 119.1,154.5 					"/>
				</g>
				<g>
					<polygon fill="#1E3D54" points="146.6,401.6 118.7,394.7 119.1,154.5 147.1,171.6 					"/>
				</g>
				<g>
					<polygon fill="#1E3D54" points="147.1,171.6 119.1,154.5 341.7,123.2 360.2,141.6 					"/>
				</g>
				<g>
					<polygon fill="#1E3D54" points="166,180 147.1,171.6 360.2,141.6 388.6,148.7 					"/>
				</g>
				<g>
					<polygon fill="#1E3D54" points="165.5,420.2 146.6,401.6 147.1,171.6 166,180 					"/>
				</g>
				<g>
					<polygon fill="#1E3D54" points="193.9,197 166,180 388.6,148.7 407,167.1 					"/>
				</g>
				<g>
					<polygon fill="#1E3D54" points="193.5,427 165.5,420.2 166,180 193.9,197 					"/>
				</g>
				<g>
					<polygon fill="#1E3D54" points="213.3,205.7 193.9,197 407,167.1 435.7,174.5 					"/>
				</g>
				<g>
					<polygon fill="#1E3D54" points="212.8,445.8 193.5,427 193.9,197 213.3,205.7 					"/>
				</g>
				<g>
					<polygon fill="#1E3D54" points="239.5,452.1 212.8,445.8 213.3,205.7 239.9,222.1 					"/>
				</g>
				<g>
					<polygon fill="#1E3D54" points="239.9,222.1 213.3,205.7 435.7,174.5 453,192.1 					"/>
				</g>
				<g>
					<polygon fill="#1E3D54" points="258.3,470.6 239.5,452.1 239.9,222.1 258.7,230.4 					"/>
				</g>
				<g>
					<polygon fill="#1E3D54" points="258.7,230.4 239.9,222.1 453,192.1 481.3,199.2 					"/>
				</g>
				<g>
					<polygon fill="#1E3D54" points="481.3,199.2 480.9,439.4 258.3,470.6 258.7,230.4 					"/>
				</g>
			</g>
		</g>
		<g>
			<g enable-background="new    ">
				<g>
					<polygon fill="#1E3D54" points="824.4,418.4 824.2,505.7 743.3,517 743.5,429.7 					"/>
				</g>
				<g>
					<polygon fill="#1E3D54" points="743.3,517 696.4,491.5 696.6,404.2 743.5,429.7 					"/>
				</g>
				<g>
					<polygon fill="#1E3D54" points="743.5,429.7 696.6,404.2 777.5,392.9 824.4,418.4 					"/>
				</g>
			</g>
		</g>
		<g>
			<g enable-background="new    ">
				<g>
					<polygon fill="#1E3D54" points="704.8,532.6 704.8,576.2 664.3,581.9 664.4,538.3 					"/>
				</g>
				<g>
					<polygon fill="#1E3D54" points="664.3,581.9 636.9,567 637,523.4 664.4,538.3 					"/>
				</g>
				<g>
					<polygon fill="#1E3D54" points="664.4,538.3 637,523.4 677.4,517.7 704.8,532.6 					"/>
				</g>
			</g>
		</g>
		<g>
			<g enable-background="new    ">
				<g>
					<polygon fill="#1E3D54" points="850.5,464.5 850.4,508.1 810,513.8 810.1,470.1 					"/>
				</g>
				<g>
					<polygon fill="#1E3D54" points="810,513.8 782.6,498.9 782.6,455.2 810.1,470.1 					"/>
				</g>
				<g>
					<polygon fill="#1E3D54" points="810.1,470.1 782.6,455.2 823.1,449.5 850.5,464.5 					"/>
				</g>
			</g>
		</g>
		<g>
			<g enable-background="new    ">
				<g>
					<polygon fill="#1E3D54" points="632.7,343.3 632.6,381.8 596.9,386.8 597,348.3 					"/>
				</g>
				<g>
					<polygon fill="#1E3D54" points="596.9,386.8 583.5,379.5 583.6,341 597,348.3 					"/>
				</g>
				<g>
					<polygon fill="#1E3D54" points="597,348.3 583.6,341 619.3,336 632.7,343.3 					"/>
				</g>
			</g>
		</g>
		<g>
			<g enable-background="new    ">
				<g>
					<polygon fill="#1E3D54" points="585.2,267.2 585,408.4 454.2,426.8 454.4,285.6 					"/>
				</g>
				<g>
					<polygon fill="#1E3D54" points="454.2,426.8 359.8,375.4 360,234.3 454.4,285.6 					"/>
				</g>
				<g>
					<polygon fill="#1E3D54" points="454.4,285.6 360,234.3 490.8,215.9 585.2,267.2 					"/>
				</g>
			</g>
		</g>
		<g>
			<g enable-background="new    ">
				<g>
					<polygon fill="#1E3D54" points="977,73.6 976.7,212.6 847.9,230.7 848.2,91.7 					"/>
				</g>
				<g>
					<polygon fill="#1E3D54" points="847.9,230.7 755.4,180.3 755.6,41.3 848.2,91.7 					"/>
				</g>
				<g>
					<polygon fill="#1E3D54" points="848.2,91.7 755.6,41.3 884.4,23.2 977,73.6 					"/>
				</g>
			</g>
		</g>
		<g>
			<g enable-background="new    ">
				<g>
					<polygon fill="#1E3D54" points="1032.1,223.6 1031.9,332.7 930.9,346.9 931.1,237.8 					"/>
				</g>
				<g>
					<polygon fill="#1E3D54" points="930.9,346.9 854.7,305.5 854.9,196.4 931.1,237.8 					"/>
				</g>
				<g>
					<polygon fill="#1E3D54" points="931.1,237.8 854.9,196.4 956,182.2 1032.1,223.6 					"/>
				</g>
			</g>
		</g>
		<g>
			<g enable-background="new    ">
				<g>
					<polygon fill="#1E3D54" points="435.1,516.6 434.9,615 343.7,627.8 343.9,529.4 					"/>
				</g>
				<g>
					<polygon fill="#1E3D54" points="343.7,627.8 282.8,594.6 283,496.2 343.9,529.4 					"/>
				</g>
				<g>
					<polygon fill="#1E3D54" points="343.9,529.4 283,496.2 374.2,483.4 435.1,516.6 					"/>
				</g>
			</g>
		</g>
		<g>
			<g enable-background="new    ">
				<g>
					<polygon fill="#1E3D54" points="300.2,64.3 300,132.7 236.6,141.6 236.7,73.2 					"/>
				</g>
				<g>
					<polygon fill="#1E3D54" points="236.6,141.6 206.2,125.1 206.3,56.6 236.7,73.2 					"/>
				</g>
				<g>
					<polygon fill="#1E3D54" points="236.7,73.2 206.3,56.6 269.7,47.7 300.2,64.3 					"/>
				</g>
			</g>
		</g>
		<g>
			<g enable-background="new    ">
				<g>
					<polygon fill="#1E3D54" points="128.2,275.5 128.1,371.3 39.3,383.8 39.4,287.9 					"/>
				</g>
				<g>
					<polygon fill="#1E3D54" points="39.3,383.8 8.8,367.2 9,271.4 39.4,287.9 					"/>
				</g>
				<g>
					<polygon fill="#1E3D54" points="39.4,287.9 9,271.4 97.8,258.9 128.2,275.5 					"/>
				</g>
			</g>
		</g>
		<g>
			<g enable-background="new    ">
				<g>
					<polygon fill="#1E3D54" points="524.9,326.6 524.8,362.1 491.9,366.7 492,331.2 					"/>
				</g>
				<g>
					<polygon fill="#1E3D54" points="491.9,366.7 472.5,356.2 472.6,320.7 492,331.2 					"/>
				</g>
				<g>
					<polygon fill="#1E3D54" points="492,331.2 472.6,320.7 505.5,316 524.9,326.6 					"/>
				</g>
			</g>
		</g>
		<g>
			<g enable-background="new    ">
				<g>
					<polygon fill="#1E3D54" points="977.4,167.9 977.3,211.5 936.9,217.2 937,173.5 					"/>
				</g>
				<g>
					<polygon fill="#1E3D54" points="936.9,217.2 909.5,202.3 909.6,158.6 937,173.5 					"/>
				</g>
				<g>
					<polygon fill="#1E3D54" points="937,173.5 909.6,158.6 950,153 977.4,167.9 					"/>
				</g>
			</g>
		</g>
		<g>
			<g enable-background="new    ">
				<g>
					<polygon fill="#1E3D54" points="918.9,605.8 918.8,624.5 901.5,626.9 901.5,608.2 					"/>
				</g>
				<g>
					<polygon fill="#1E3D54" points="901.5,626.9 871,610.4 871,591.6 901.5,608.2 					"/>
				</g>
				<g>
					<polygon fill="#1E3D54" points="901.5,608.2 871,591.6 888.4,589.2 918.9,605.8 					"/>
				</g>
			</g>
		</g>
		<g>
			<g enable-background="new    ">
				<g>
					<polygon fill="#1E3D54" points="542.7,120.3 542.7,151.1 514.2,155.1 514.2,124.4 					"/>
				</g>
				<g>
					<polygon fill="#1E3D54" points="514.2,155.1 486.7,140.2 486.8,109.4 514.2,124.4 					"/>
				</g>
				<g>
					<polygon fill="#1E3D54" points="514.2,124.4 486.8,109.4 515.3,105.4 542.7,120.3 					"/>
				</g>
			</g>
		</g>
		<g>
			<g enable-background="new    ">
				<g>
					<polygon fill="#1E3D54" points="658.8,221.8 648.4,215 760.1,199.3 764.6,207 					"/>
				</g>
				<g>
					<polygon fill="#1E3D54" points="658.6,336.1 648.2,335.6 648.4,215 658.8,221.8 					"/>
				</g>
				<g>
					<polygon fill="#1E3D54" points="663.2,343.8 658.6,336.1 658.8,221.8 663.5,223.2 					"/>
				</g>
				<g>
					<polygon fill="#1E3D54" points="663.5,223.2 658.8,221.8 764.6,207 775.2,207.5 					"/>
				</g>
				<g>
					<polygon fill="#1E3D54" points="673.8,230 663.5,223.2 775.2,207.5 779.7,215.1 					"/>
				</g>
				<g>
					<polygon fill="#1E3D54" points="673.6,344.3 663.2,343.8 663.5,223.2 673.8,230 					"/>
				</g>
				<g>
					<polygon fill="#1E3D54" points="678.5,231.4 673.8,230 779.7,215.1 790.3,215.7 					"/>
				</g>
				<g>
					<polygon fill="#1E3D54" points="678.3,352 673.6,344.3 673.8,230 678.5,231.4 					"/>
				</g>
				<g>
					<polygon fill="#1E3D54" points="688.7,352.5 678.3,352 678.5,231.4 688.9,238.2 					"/>
				</g>
				<g>
					<polygon fill="#1E3D54" points="688.9,238.2 678.5,231.4 790.3,215.7 794.8,223.3 					"/>
				</g>
				<g>
					<polygon fill="#1E3D54" points="693.6,239.6 688.9,238.2 794.8,223.3 805.3,223.9 					"/>
				</g>
				<g>
					<polygon fill="#1E3D54" points="693.4,360.2 688.7,352.5 688.9,238.2 693.6,239.6 					"/>
				</g>
				<g>
					<polygon fill="#1E3D54" points="704,246.4 693.6,239.6 805.3,223.9 809.9,231.6 					"/>
				</g>
				<g>
					<polygon fill="#1E3D54" points="703.8,360.7 693.4,360.2 693.6,239.6 704,246.4 					"/>
				</g>
				<g>
					<polygon fill="#1E3D54" points="708.8,247.9 704,246.4 809.9,231.6 820.5,232.2 					"/>
				</g>
				<g>
					<polygon fill="#1E3D54" points="708.6,368.4 703.8,360.7 704,246.4 708.8,247.9 					"/>
				</g>
				<g>
					<polygon fill="#1E3D54" points="718.6,368.7 708.6,368.4 708.8,247.9 718.8,254.5 					"/>
				</g>
				<g>
					<polygon fill="#1E3D54" points="718.8,254.5 708.8,247.9 820.5,232.2 824.7,239.6 					"/>
				</g>
				<g>
					<polygon fill="#1E3D54" points="723.2,376.4 718.6,368.7 718.8,254.5 723.5,255.8 					"/>
				</g>
				<g>
					<polygon fill="#1E3D54" points="723.5,255.8 718.8,254.5 824.7,239.6 835.2,240.1 					"/>
				</g>
				<g>
					<polygon fill="#1E3D54" points="835.2,240.1 835,360.7 723.2,376.4 723.5,255.8 					"/>
				</g>
			</g>
		</g>
	</g>
</g>
<g id="Layer_3">
	<polyline fill="#1E3D54" points="258.3,470.6 237.4,451.6 212.8,445.8 193.5,427 165.5,420.2 146.6,401.6 118.7,394.7 99.7,376 
		39.3,383.8 8.8,367.2 9,271.4 25.2,269.1 25.5,103.5 206.3,78.1 206.3,56.6 269.7,47.7 300.2,64.3 300.2,103 313.2,116.1 
		341.7,123.2 360.2,141.6 388.6,148.7 407,167.1 435.7,174.5 453,192.1 481.3,199.2 481.3,217.2 490.8,215.9 585.2,267.2 	"/>
	<polyline fill="#1E3D54" points="343.7,627.8 282.8,594.6 283,496.2 374.2,483.4 435.1,516.6 	"/>
	<polyline fill="#1E3D54" points="486.7,140.2 486.8,109.4 515.3,105.4 542.7,120.3 542.7,151.1 514.2,155.1 	"/>
	<polyline fill="#1E3D54" points="596.9,386.8 585,380.3 585,341 619.3,336 632.7,343.3 	"/>
	<polyline fill="#1E3D54" points="664.3,581.9 636.9,567 637,523.4 677.4,517.7 704.8,532.6 	"/>
	<polyline fill="#1E3D54" points="696.4,491.5 696.6,404.2 777.5,392.9 824.4,418.4 824.4,450.2 850.5,464.5 850.4,508.1 810,513.8 
		793.2,499.7 743.3,517 	"/>
	<polyline fill="#1E3D54" points="723.2,376.4 718.6,368.7 708.6,368.4 703.8,360.7 693.4,360.2 688.7,352.5 678.3,352 673.6,344.3 
		663.2,343.8 658.6,336.1 648.2,335.6 648.4,215 760.1,199.3 764.6,207 775.2,207.5 779.7,215.1 790.3,215.7 794.8,223.3 
		805.3,223.9 809.9,231.6 820.5,232.2 824.7,239.6 835.2,240.1 835,360.7 	"/>
	<polyline fill="#1E3D54" points="871,591.6 888.4,589.2 918.9,605.8 918.8,624.5 901.5,626.9 	"/>
	<polyline fill="#1E3D54" points="847.9,230 755.4,180.3 755.6,41.3 884.4,23.2 977,73.6 977,193.6 1032.1,223.6 1031.9,332.7 
		930.9,346.9 854.7,305.5 867.7,221.8 	"/>
</g>
</svg>
